<svg width="52" height="66" viewBox="0 0 52 66" fill="none" xmlns="http://www.w3.org/2000/svg">
<rect width="52" height="50" rx="10" fill="#6DDFD8" fill-opacity="0.15"/>
<mask id="path-2-inside-1_6762_812" fill="white">
<path d="M31.0117 27.9834C31.0117 30.3528 28.7028 32.27 25.9414 32.27C23.18 32.27 21.0117 30.3491 21.0117 27.9797C21.0117 25.6104 23.18 23.6934 25.9414 23.6934C28.7028 23.6934 31.0117 25.6141 31.0117 27.9834ZM22.0117 27.9797C22.0117 30.0782 23.4956 31.3165 25.9414 31.3165C28.3872 31.3165 30.0117 30.082 30.0117 27.9834C30.0117 25.8849 28.3872 24.643 25.9414 24.643C23.4956 24.643 22.0117 25.8812 22.0117 27.9797Z"/>
</mask>
<path d="M31.0117 27.9834C31.0117 30.3528 28.7028 32.27 25.9414 32.27C23.18 32.27 21.0117 30.3491 21.0117 27.9797C21.0117 25.6104 23.18 23.6934 25.9414 23.6934C28.7028 23.6934 31.0117 25.6141 31.0117 27.9834ZM22.0117 27.9797C22.0117 30.0782 23.4956 31.3165 25.9414 31.3165C28.3872 31.3165 30.0117 30.082 30.0117 27.9834C30.0117 25.8849 28.3872 24.643 25.9414 24.643C23.4956 24.643 22.0117 25.8812 22.0117 27.9797Z" fill="#6DDFD8"/>
<path d="M29.0117 27.9834C29.0117 28.9371 27.9374 30.27 25.9414 30.27V34.27C29.4682 34.27 33.0117 31.7685 33.0117 27.9834H29.0117ZM25.9414 30.27C24.0255 30.27 23.0117 29.0021 23.0117 27.9797H19.0117C19.0117 31.696 22.3345 34.27 25.9414 34.27V30.27ZM23.0117 27.9797C23.0117 26.9595 24.023 25.6934 25.9414 25.6934V21.6934C22.337 21.6934 19.0117 24.2612 19.0117 27.9797H23.0117ZM25.9414 25.6934C27.9352 25.6934 29.0117 27.0278 29.0117 27.9834H33.0117C33.0117 24.2004 29.4705 21.6934 25.9414 21.6934V25.6934ZM20.0117 27.9797C20.0117 29.5348 20.5824 30.9603 21.7685 31.9626C22.9106 32.9278 24.4035 33.3165 25.9414 33.3165V29.3165C25.0335 29.3165 24.5616 29.086 24.3503 28.9075C24.183 28.7661 24.0117 28.5232 24.0117 27.9797H20.0117ZM25.9414 33.3165C27.477 33.3165 28.9813 32.9305 30.1451 31.9971C31.3602 31.0225 32.0117 29.5998 32.0117 27.9834H28.0117C28.0117 28.4656 27.8509 28.7095 27.6424 28.8767C27.3825 29.0852 26.8516 29.3165 25.9414 29.3165V33.3165ZM32.0117 27.9834C32.0117 26.3677 31.3609 24.9444 30.1475 23.9681C28.9844 23.0321 27.4797 22.643 25.9414 22.643V26.643C26.8489 26.643 27.3794 26.8748 27.6399 27.0845C27.8503 27.2538 28.0117 27.5007 28.0117 27.9834H32.0117ZM25.9414 22.643C24.4035 22.643 22.9106 23.0316 21.7685 23.9968C20.5824 24.9992 20.0117 26.4247 20.0117 27.9797H24.0117C24.0117 27.4362 24.183 27.1934 24.3503 27.052C24.5616 26.8735 25.0335 26.643 25.9414 26.643V22.643Z" fill="#04294B" mask="url(#path-2-inside-1_6762_812)"/>
<path d="M26.0993 33.4062C28.0298 33.4062 29.494 33.9162 30.6143 34.7022C31.7392 35.4914 32.5462 36.5795 33.1236 37.7765C34.2844 40.1833 34.4837 42.9613 34.499 44.377C34.5014 44.6015 34.3187 44.7998 34.0474 44.7998L18.9628 44.7998C18.7 44.7998 18.5167 44.6112 18.5097 44.3906C18.4651 42.9898 18.5369 40.2022 19.5516 37.7834C20.0562 36.5805 20.7848 35.4909 21.8278 34.702C22.8648 33.9177 24.2444 33.4063 26.0993 33.4062Z" stroke="#04294B"/>
<path d="M25.1054 34.0458C25.0181 33.8793 25.1389 33.6797 25.3268 33.6797H26.6732C26.8611 33.6797 26.9819 33.8793 26.8946 34.0458L26.419 34.9525C26.3759 35.0348 26.2906 35.0864 26.1976 35.0864H25.8024C25.7094 35.0864 25.6241 35.0348 25.581 34.9525L25.1054 34.0458Z" stroke="#04294B" stroke-width="0.5"/>
<path d="M27.1895 39.7341C27.2227 39.8885 27.1062 40.0346 26.9482 40.0364L25.1707 40.0568C25.0127 40.0586 24.8926 39.9153 24.9219 39.7601L25.6699 35.8034C25.692 35.6866 25.7935 35.6015 25.9124 35.6002L26.0943 35.5981C26.2133 35.5967 26.3168 35.6794 26.3419 35.7957L27.1895 39.7341Z" stroke="#04294B" stroke-width="0.5"/>
</svg>
